<svg xmlns="http://www.w3.org/2000/svg" version="1.1" xmlns:xlink="http://www.w3.org/1999/xlink" xmlns:svgjs="http://svgjs.dev/svgjs" width="1000" height="1000" viewBox="0 0 1000 1000"><rect width="1000" height="1000" fill="#000000"></rect><g transform="matrix(0.7,0,0,0.7,149.57575757575756,282.1265587044535)"><svg viewBox="0 0 396 247" data-background-color="#cf5260" preserveAspectRatio="xMidYMid meet" height="623" width="1000" xmlns="http://www.w3.org/2000/svg" xmlns:xlink="http://www.w3.org/1999/xlink"><g id="tight-bounds" transform="matrix(1,0,0,1,0.2400000000000091,-0.09999999999999432)"><svg viewBox="0 0 395.52 247.2" height="247.2" width="395.52"><g><svg></svg></g><g><svg viewBox="0 0 395.52 247.2" height="247.2" width="395.52"><g transform="matrix(1,0,0,1,39.55199999999999,98.77787183561938)"><svg viewBox="0 0 316.416 49.64425632876123" height="49.64425632876123" width="316.416"><g><svg viewBox="0 0 316.416 49.64425632876123" height="49.64425632876123" width="316.416"><g><svg viewBox="0 0 316.416 49.64425632876123" height="49.64425632876123" width="316.416"><g><svg viewBox="0 0 316.416 49.64425632876123" height="49.64425632876123" width="316.416"><g><svg viewBox="0 0 316.416 49.64425632876123" height="49.64425632876123" width="316.416"><g><svg viewBox="0 0 316.416 26.77573968314202" height="26.77573968314202" width="316.416"><g transform="matrix(1,0,0,1,0,0)"><svg width="316.416" viewBox="0.3500000238418579 -35.25 527 44.599998474121094" height="26.77573968314202" data-palette-color="#f0f0f0"><path d="M14.45-2.9Q15.55-2.9 16.65-3.05L16.65-3.05 16.45 0.15Q15.3 0.35 13.95 0.35L13.95 0.35Q9.55 0.35 7.33-1.95 5.1-4.25 5.1-8.35L5.1-8.35 5.1-21.15 0.35-21.15 0.35-24.35 5.1-24.35 5.1-31.75 9.15-31.75 9.15-24.35 16.05-24.35 16.05-21.15 9.15-21.15 9.15-8.65Q9.15-2.9 14.45-2.9L14.45-2.9ZM33-24.95Q41.75-24.95 41.75-15.3L41.75-15.3 41.75 0 37.7 0 37.7-15.05Q37.7-18.45 36.37-20 35.05-21.55 32.15-21.55L32.15-21.55Q28.8-21.55 26.8-19.5 24.8-17.45 24.8-13.95L24.8-13.95 24.8 0 20.75 0 20.75-35.25 24.8-35.25 24.8-20.45Q26-22.65 28.12-23.8 30.25-24.95 33-24.95L33-24.95ZM53.2 0L49.15 0 49.15-24.35 53.2-24.35 53.2 0ZM48.75-30.35L48.75-34.9 53.65-34.9 53.65-30.35 48.75-30.35ZM72.99-24.95Q81.74-24.95 81.74-15.3L81.74-15.3 81.74 0 77.69 0 77.69-15.05Q77.69-18.45 76.37-20 75.04-21.55 72.14-21.55L72.14-21.55Q68.79-21.55 66.79-19.5 64.79-17.45 64.79-13.95L64.79-13.95 64.79 0 60.74 0 60.74-24.35 64.74-24.35 64.74-20.35Q65.94-22.6 68.09-23.78 70.24-24.95 72.99-24.95L72.99-24.95ZM97.59-12.65L110.84 0 105.59 0 93.19-11.65 93.19 0 89.14 0 89.14-35.25 93.19-35.25 93.19-13.3 104.54-24.3 109.69-24.3 97.59-12.65ZM137.74-2.9Q138.84-2.9 139.94-3.05L139.94-3.05 139.74 0.15Q138.59 0.35 137.24 0.35L137.24 0.35Q132.84 0.35 130.61-1.95 128.39-4.25 128.39-8.35L128.39-8.35 128.39-21.15 123.64-21.15 123.64-24.35 128.39-24.35 128.39-31.75 132.44-31.75 132.44-24.35 139.34-24.35 139.34-21.15 132.44-21.15 132.44-8.65Q132.44-2.9 137.74-2.9L137.74-2.9ZM148.08 0L144.03 0 144.03-24.35 148.08-24.35 148.08 0ZM143.63-30.35L143.63-34.9 148.53-34.9 148.53-30.35 143.63-30.35ZM182.73-24.95Q190.83-24.95 190.83-15.3L190.83-15.3 190.83 0 186.78 0 186.78-15.1Q186.78-18.45 185.61-20 184.43-21.55 181.83-21.55L181.83-21.55Q178.78-21.55 177.03-19.5 175.28-17.45 175.28-13.9L175.28-13.9 175.28 0 171.23 0 171.23-15.1Q171.23-18.5 170.03-20.03 168.83-21.55 166.23-21.55L166.23-21.55Q163.18-21.55 161.43-19.5 159.68-17.45 159.68-13.9L159.68-13.9 159.68 0 155.63 0 155.63-24.35 159.63-24.35 159.63-20.5Q160.73-22.65 162.68-23.8 164.63-24.95 167.18-24.95L167.18-24.95Q172.83-24.95 174.63-20.15L174.63-20.15Q175.68-22.4 177.83-23.68 179.98-24.95 182.73-24.95L182.73-24.95ZM218.63-13.05L218.63-11.55 200.83-11.55Q201.03-7.3 203.13-5.13 205.23-2.95 209.08-2.95L209.08-2.95Q213.33-2.95 216.88-5.85L216.88-5.85 218.23-2.9Q216.63-1.4 214.13-0.53 211.63 0.35 209.03 0.35L209.03 0.35Q203.33 0.35 200.05-3 196.78-6.35 196.78-12.25L196.78-12.25Q196.78-16 198.23-18.88 199.68-21.75 202.3-23.35 204.93-24.95 208.28-24.95L208.28-24.95Q213.13-24.95 215.88-21.78 218.63-18.6 218.63-13.05L218.63-13.05ZM208.33-21.8Q205.13-21.8 203.2-19.8 201.28-17.8 200.93-14.15L200.93-14.15 215.08-14.15Q214.98-17.85 213.23-19.83 211.48-21.8 208.33-21.8L208.33-21.8ZM264.57-24.95Q272.67-24.95 272.67-15.3L272.67-15.3 272.67 0 268.62 0 268.62-15.1Q268.62-18.45 267.45-20 266.27-21.55 263.67-21.55L263.67-21.55Q260.62-21.55 258.87-19.5 257.12-17.45 257.12-13.9L257.12-13.9 257.12 0 253.07 0 253.07-15.1Q253.07-18.5 251.87-20.03 250.67-21.55 248.07-21.55L248.07-21.55Q245.02-21.55 243.27-19.5 241.52-17.45 241.52-13.9L241.52-13.9 241.52 0 237.47 0 237.47-24.35 241.47-24.35 241.47-20.5Q242.57-22.65 244.52-23.8 246.47-24.95 249.02-24.95L249.02-24.95Q254.67-24.95 256.47-20.15L256.47-20.15Q257.52-22.4 259.67-23.68 261.82-24.95 264.57-24.95L264.57-24.95ZM289.97-24.95Q294.62-24.95 296.9-22.58 299.17-20.2 299.17-15.35L299.17-15.35 299.17 0 295.22 0 295.22-4.15Q294.27-2 292.32-0.83 290.37 0.35 287.82 0.35L287.82 0.35Q285.47 0.35 283.5-0.6 281.52-1.55 280.37-3.25 279.22-4.95 279.22-7L279.22-7Q279.22-9.75 280.62-11.28 282.02-12.8 285.22-13.48 288.42-14.15 294.12-14.15L294.12-14.15 295.22-14.15 295.22-15.8Q295.22-18.85 293.97-20.23 292.72-21.6 289.92-21.6L289.92-21.6Q285.72-21.6 281.57-19L281.57-19 280.22-21.95Q282.12-23.3 284.8-24.13 287.47-24.95 289.97-24.95L289.97-24.95ZM288.37-2.85Q291.37-2.85 293.3-4.88 295.22-6.9 295.22-10.1L295.22-10.1 295.22-11.55 294.32-11.55Q289.92-11.55 287.62-11.18 285.32-10.8 284.35-9.93 283.37-9.05 283.37-7.35L283.37-7.35Q283.37-5.4 284.8-4.13 286.22-2.85 288.37-2.85L288.37-2.85ZM318.82-24.95Q327.57-24.95 327.57-15.3L327.57-15.3 327.57 0 323.52 0 323.52-15.05Q323.52-18.45 322.19-20 320.87-21.55 317.97-21.55L317.97-21.55Q314.62-21.55 312.62-19.5 310.62-17.45 310.62-13.95L310.62-13.95 310.62 0 306.57 0 306.57-24.35 310.57-24.35 310.57-20.35Q311.77-22.6 313.92-23.78 316.07-24.95 318.82-24.95L318.82-24.95ZM344.87-24.95Q349.52-24.95 351.79-22.58 354.07-20.2 354.07-15.35L354.07-15.35 354.07 0 350.12 0 350.12-4.15Q349.17-2 347.22-0.83 345.27 0.35 342.72 0.35L342.72 0.35Q340.37 0.35 338.39-0.6 336.42-1.55 335.27-3.25 334.12-4.95 334.12-7L334.12-7Q334.12-9.75 335.52-11.28 336.92-12.8 340.12-13.48 343.32-14.15 349.02-14.15L349.02-14.15 350.12-14.15 350.12-15.8Q350.12-18.85 348.87-20.23 347.62-21.6 344.82-21.6L344.82-21.6Q340.62-21.6 336.47-19L336.47-19 335.12-21.95Q337.02-23.3 339.69-24.13 342.37-24.95 344.87-24.95L344.87-24.95ZM343.27-2.85Q346.27-2.85 348.19-4.88 350.12-6.9 350.12-10.1L350.12-10.1 350.12-11.55 349.22-11.55Q344.82-11.55 342.52-11.18 340.22-10.8 339.24-9.93 338.27-9.05 338.27-7.35L338.27-7.35Q338.27-5.4 339.69-4.13 341.12-2.85 343.27-2.85L343.27-2.85ZM379.21-24.35L383.26-24.35 383.26-1.65Q383.26 3.8 380.46 6.58 377.66 9.35 372.16 9.35L372.16 9.35Q365.76 9.35 361.41 6.05L361.41 6.05 362.76 3.05Q365.21 4.65 367.36 5.35 369.51 6.05 372.16 6.05L372.16 6.05Q375.66 6.05 377.46 4.17 379.26 2.3 379.26-1.3L379.26-1.3 379.26-5.6Q378.21-3.25 376.04-2 373.86-0.75 370.91-0.75L370.91-0.75Q367.71-0.75 365.24-2.25 362.76-3.75 361.39-6.5 360.01-9.25 360.01-12.85L360.01-12.85Q360.01-16.45 361.39-19.2 362.76-21.95 365.24-23.45 367.71-24.95 370.91-24.95L370.91-24.95Q373.81-24.95 375.96-23.7 378.11-22.45 379.21-20.15L379.21-20.15 379.21-24.35ZM371.71-4.1Q375.21-4.1 377.21-6.43 379.21-8.75 379.21-12.85L379.21-12.85Q379.21-16.9 377.24-19.23 375.26-21.55 371.71-21.55L371.71-21.55Q368.16-21.55 366.14-19.23 364.11-16.9 364.11-12.85L364.11-12.85Q364.11-8.75 366.14-6.43 368.16-4.1 371.71-4.1L371.71-4.1ZM411.16-13.05L411.16-11.55 393.36-11.55Q393.56-7.3 395.66-5.13 397.76-2.95 401.61-2.95L401.61-2.95Q405.86-2.95 409.41-5.85L409.41-5.85 410.76-2.9Q409.16-1.4 406.66-0.53 404.16 0.35 401.56 0.35L401.56 0.35Q395.86 0.35 392.59-3 389.31-6.35 389.31-12.25L389.31-12.25Q389.31-16 390.76-18.88 392.21-21.75 394.84-23.35 397.46-24.95 400.81-24.95L400.81-24.95Q405.66-24.95 408.41-21.78 411.16-18.6 411.16-13.05L411.16-13.05ZM400.86-21.8Q397.66-21.8 395.74-19.8 393.81-17.8 393.46-14.15L393.46-14.15 407.61-14.15Q407.51-17.85 405.76-19.83 404.01-21.8 400.86-21.8L400.86-21.8ZM444.21-24.95Q452.31-24.95 452.31-15.3L452.31-15.3 452.31 0 448.26 0 448.26-15.1Q448.26-18.45 447.08-20 445.91-21.55 443.31-21.55L443.31-21.55Q440.26-21.55 438.51-19.5 436.76-17.45 436.76-13.9L436.76-13.9 436.76 0 432.71 0 432.71-15.1Q432.71-18.5 431.51-20.03 430.31-21.55 427.71-21.55L427.71-21.55Q424.66-21.55 422.91-19.5 421.16-17.45 421.16-13.9L421.16-13.9 421.16 0 417.11 0 417.11-24.35 421.11-24.35 421.11-20.5Q422.21-22.65 424.16-23.8 426.11-24.95 428.66-24.95L428.66-24.95Q434.31-24.95 436.11-20.15L436.11-20.15Q437.16-22.4 439.31-23.68 441.46-24.95 444.21-24.95L444.21-24.95ZM480.11-13.05L480.11-11.55 462.31-11.55Q462.51-7.3 464.61-5.13 466.71-2.95 470.56-2.95L470.56-2.95Q474.81-2.95 478.36-5.85L478.36-5.85 479.71-2.9Q478.11-1.4 475.61-0.53 473.11 0.35 470.51 0.35L470.51 0.35Q464.81 0.35 461.53-3 458.26-6.35 458.26-12.25L458.26-12.25Q458.26-16 459.71-18.88 461.16-21.75 463.78-23.35 466.41-24.95 469.76-24.95L469.76-24.95Q474.61-24.95 477.36-21.78 480.11-18.6 480.11-13.05L480.11-13.05ZM469.81-21.8Q466.61-21.8 464.68-19.8 462.76-17.8 462.41-14.15L462.41-14.15 476.56-14.15Q476.46-17.85 474.71-19.83 472.96-21.8 469.81-21.8L469.81-21.8ZM498.3-24.95Q507.05-24.95 507.05-15.3L507.05-15.3 507.05 0 503 0 503-15.05Q503-18.45 501.68-20 500.35-21.55 497.45-21.55L497.45-21.55Q494.1-21.55 492.1-19.5 490.1-17.45 490.1-13.95L490.1-13.95 490.1 0 486.05 0 486.05-24.35 490.05-24.35 490.05-20.35Q491.25-22.6 493.4-23.78 495.55-24.95 498.3-24.95L498.3-24.95ZM525.15-2.9Q526.25-2.9 527.35-3.05L527.35-3.05 527.15 0.15Q526 0.35 524.65 0.35L524.65 0.35Q520.25 0.35 518.03-1.95 515.8-4.25 515.8-8.35L515.8-8.35 515.8-21.15 511.05-21.15 511.05-24.35 515.8-24.35 515.8-31.75 519.85-31.75 519.85-24.35 526.75-24.35 526.75-21.15 519.85-21.15 519.85-8.65Q519.85-2.9 525.15-2.9L525.15-2.9Z" opacity="1" transform="matrix(1,0,0,1,0,0)" fill="#ffffff" class="undefined-text-0" data-fill-palette-color="primary" id="text-0"></path></svg></g></svg></g><g transform="matrix(1,0,0,1,0,33.096849204579456)"><svg viewBox="0 0 316.416 16.54740712418177" height="16.54740712418177" width="316.416"><g transform="matrix(1,0,0,1,0,0)"><svg width="316.416" viewBox="1.0299999713897705 -32.279998779296875 830.0399780273438 43.40999984741211" height="16.54740712418177" data-palette-color="#f0f0f0"><path d="M15.63-3.91L16.46-2.73Q15.48-1.22 13.96-0.44 12.45 0.34 10.84 0.34L10.84 0.34Q8.01 0.34 6.18-1.42 4.35-3.17 4.35-6.64L4.35-6.64 4.44-18.55 1.03-18.55 1.03-19.43 6.79-24.95 7.52-24.95 7.42-19.68 7.37-7.52Q7.37-4.88 8.5-3.54 9.62-2.2 11.72-2.2L11.72-2.2Q12.89-2.2 13.89-2.69 14.89-3.17 15.63-3.91L15.63-3.91ZM14.94-18.55L6.01-18.55 6.01-20.8 14.94-20.8 14.94-18.55ZM73.7 0L63.93 0 63.84-1.66 67.11-2.29Q67.16-2.49 67.18-2.93 67.2-3.37 67.23-4.47 67.25-5.57 67.25-7.62L67.25-7.62 67.3-10.69Q67.3-12.94 67.2-14.75 67.11-16.55 66.96-17.33L66.96-17.33 63.69-18.02 63.69-19.48 70.04-21.14 70.57-20.56Q70.48-19.04 70.4-17.6 70.33-16.16 70.33-14.21L70.33-14.21 70.33-8.06Q70.33-5.66 70.4-4.17 70.48-2.69 70.53-2.29L70.53-2.29 73.8-1.66 73.7 0ZM68.82-27.1L68.82-27.1Q67.74-27.1 66.91-27.83 66.08-28.56 66.08-29.69L66.08-29.69Q66.08-30.76 66.91-31.52 67.74-32.28 68.82-32.28L68.82-32.28Q69.89-32.28 70.67-31.52 71.45-30.76 71.45-29.69L71.45-29.69Q71.45-28.56 70.67-27.83 69.89-27.1 68.82-27.1ZM132.31 0L123.13 0 123.03-1.61 126.06-2.29Q126.11-2.73 126.13-3.22 126.16-3.71 126.18-4.74 126.21-5.76 126.21-7.62L126.21-7.62 126.26-11.47Q126.3-12.55 126.26-13.7 126.21-14.84 126.11-15.84 126.01-16.85 125.91-17.33L125.91-17.33 122.79-18.02 122.79-19.48 128.75-21.14 129.43-20.41 129.19-17.77 129.33-17.72Q130.85-19.63 132.43-20.43 134.02-21.24 135.73-21.24L135.73-21.24Q137.39-21.24 139-20.34 140.61-19.43 141.69-17.53 142.76-15.63 142.76-12.65L142.76-12.65 142.76-7.47Q142.76-5.66 142.86-4.27 142.95-2.88 143.05-2.29L143.05-2.29 146.03-1.61 145.93 0 137 0 136.9-1.61 139.59-2.29Q139.63-2.69 139.66-3.22 139.68-3.76 139.71-4.66 139.73-5.57 139.73-7.03L139.73-7.03 139.73-12.65Q139.73-14.79 139.02-16.14 138.32-17.48 137.17-18.09 136.02-18.7 134.8-18.7L134.8-18.7Q133.24-18.7 131.82-17.94 130.41-17.19 129.28-15.48L129.28-15.48 129.28-8.06Q129.28-5.66 129.36-4.3 129.43-2.93 129.48-2.29L129.48-2.29 132.41-1.61 132.31 0ZM159.41 0L150.33 0 150.23-1.61 153.01-2.29Q153.06-2.69 153.09-3.2 153.11-3.71 153.16-4.64 153.21-5.57 153.21-7.03L153.21-7.03 153.26-12.65Q153.26-14.89 152.45-16.21 151.65-17.53 150.5-18.12 149.35-18.7 148.23-18.7L148.23-18.7Q146.42-18.7 144.93-17.8 143.44-16.89 142.22-15.04L142.22-15.04 141.44-16.75Q143.15-19.14 145.05-20.19 146.96-21.24 149.06-21.24L149.06-21.24Q151.01-21.24 152.65-20.31 154.28-19.38 155.26-17.58 156.24-15.77 156.24-13.13L156.24-13.13 156.24-7.47Q156.24-5.66 156.31-4.27 156.38-2.88 156.48-2.29L156.48-2.29 159.51-1.61 159.41 0ZM219.19 0.39L219.19 0.39Q216.51 0.39 214.26-0.83 212.02-2.05 210.7-4.39 209.38-6.74 209.38-10.01L209.38-10.01Q209.38-13.53 210.75-16.04 212.11-18.55 214.36-19.92 216.6-21.29 219.14-21.24L219.14-21.24Q222.81-21.19 224.91-18.8 227.01-16.41 227.01-11.72L227.01-11.72 227.01-10.94 211.82-10.94 211.82-12.94 224.27-12.94 223.78-12.45 223.78-13.33Q223.78-16.26 222.46-17.85 221.15-19.43 218.75-19.43L218.75-19.43Q217.34-19.43 215.99-18.58 214.65-17.72 213.8-16.02 212.94-14.31 212.94-11.72L212.94-11.72 212.94-11.23Q212.94-7.08 214.97-4.79 217-2.49 220.12-2.49L220.12-2.49Q221.93-2.49 223.27-3.17 224.61-3.86 225.88-5.42L225.88-5.42 227.05-4.39Q225.69-1.95 223.68-0.78 221.68 0.39 219.19 0.39ZM342.03 0L332.26 0 332.17-1.66 335.44-2.29Q335.49-2.49 335.51-2.93 335.54-3.37 335.56-4.47 335.58-5.57 335.58-7.62L335.58-7.62 335.63-10.69Q335.63-12.94 335.54-14.75 335.44-16.55 335.29-17.33L335.29-17.33 332.02-18.02 332.02-19.48 338.37-21.14 338.91-20.56Q338.81-19.04 338.73-17.6 338.66-16.16 338.66-14.21L338.66-14.21 338.66-8.06Q338.66-5.66 338.73-4.17 338.81-2.69 338.86-2.29L338.86-2.29 342.13-1.66 342.03 0ZM337.15-27.1L337.15-27.1Q336.07-27.1 335.24-27.83 334.41-28.56 334.41-29.69L334.41-29.69Q334.41-30.76 335.24-31.52 336.07-32.28 337.15-32.28L337.15-32.28Q338.22-32.28 339-31.52 339.78-30.76 339.78-29.69L339.78-29.69Q339.78-28.56 339-27.83 338.22-27.1 337.15-27.1ZM399.32 0.39L399.32 0.39Q397.57 0.39 395.83-0.02 394.1-0.44 392.78-1.12L392.78-1.12 392.54-6.2 394.73-6.2 395.71-2.69Q397.32-1.46 399.62-1.46L399.62-1.46Q401.32-1.46 402.45-2.32 403.57-3.17 403.57-4.64L403.57-4.64Q403.57-6.01 402.59-6.98 401.62-7.96 398.93-9.13L398.93-9.13Q395.51-10.64 394.12-12.04 392.73-13.43 392.73-15.53L392.73-15.53Q392.73-17.19 393.71-18.48 394.68-19.78 396.44-20.51 398.2-21.24 400.49-21.24L400.49-21.24Q401.81-21.24 403.18-21.04 404.55-20.85 405.48-20.46L405.48-20.46 406.01-15.53 403.96-15.53 402.74-18.8Q402.25-19.09 401.57-19.26 400.89-19.43 400.1-19.43L400.1-19.43Q398.3-19.43 397.22-18.58 396.15-17.72 396.15-16.41L396.15-16.41Q396.15-14.89 397.27-13.96 398.4-13.04 401.23-11.62L401.23-11.62Q404.45-10.11 405.72-8.72 406.99-7.32 406.99-5.37L406.99-5.37Q406.99-2.88 404.82-1.25 402.64 0.39 399.32 0.39ZM521.97 0L512.79 0 512.69-1.61 515.72-2.29Q515.76-2.73 515.79-3.22 515.81-3.71 515.84-4.74 515.86-5.76 515.86-7.62L515.86-7.62 515.91-11.47Q515.96-12.55 515.91-13.7 515.86-14.84 515.76-15.84 515.67-16.85 515.57-17.33L515.57-17.33 512.44-18.02 512.44-19.48 518.4-21.14 519.08-20.41 518.84-17.77 518.99-17.72Q520.5-19.63 522.09-20.43 523.67-21.24 525.38-21.24L525.38-21.24Q527.04-21.24 528.65-20.34 530.27-19.43 531.34-17.53 532.41-15.63 532.41-12.65L532.41-12.65 532.41-7.47Q532.41-5.66 532.51-4.27 532.61-2.88 532.71-2.29L532.71-2.29 535.69-1.61 535.59 0 526.65 0 526.55-1.61 529.24-2.29Q529.29-2.69 529.31-3.22 529.34-3.76 529.36-4.66 529.39-5.57 529.39-7.03L529.39-7.03 529.39-12.65Q529.39-14.79 528.68-16.14 527.97-17.48 526.82-18.09 525.68-18.7 524.46-18.7L524.46-18.7Q522.89-18.7 521.48-17.94 520.06-17.19 518.94-15.48L518.94-15.48 518.94-8.06Q518.94-5.66 519.01-4.3 519.08-2.93 519.13-2.29L519.13-2.29 522.06-1.61 521.97 0ZM549.06 0L539.98 0 539.89-1.61 542.67-2.29Q542.72-2.69 542.74-3.2 542.77-3.71 542.81-4.64 542.86-5.57 542.86-7.03L542.86-7.03 542.91-12.65Q542.91-14.89 542.11-16.21 541.3-17.53 540.15-18.12 539.01-18.7 537.88-18.7L537.88-18.7Q536.08-18.7 534.59-17.8 533.1-16.89 531.88-15.04L531.88-15.04 531.1-16.75Q532.8-19.14 534.71-20.19 536.61-21.24 538.71-21.24L538.71-21.24Q540.67-21.24 542.3-20.31 543.94-19.38 544.91-17.58 545.89-15.77 545.89-13.13L545.89-13.13 545.89-7.47Q545.89-5.66 545.96-4.27 546.04-2.88 546.14-2.29L546.14-2.29 549.16-1.61 549.06 0ZM609.29 0.39L609.29 0.39Q606.16 0.39 603.84-0.98 601.52-2.34 600.25-4.81 598.98-7.28 598.98-10.45L598.98-10.45Q598.98-13.67 600.38-16.09 601.77-18.51 604.16-19.87 606.55-21.24 609.43-21.24L609.43-21.24Q612.41-21.24 614.61-19.92 616.81-18.6 618.03-16.19 619.25-13.77 619.25-10.55L619.25-10.55Q619.25-7.52 617.93-5.03 616.61-2.54 614.34-1.07 612.07 0.39 609.29 0.39ZM609.73-1.66L609.73-1.66Q611.53-1.66 612.85-2.73 614.17-3.81 614.93-5.64 615.68-7.47 615.68-9.86L615.68-9.86Q615.68-14.06 613.83-16.67 611.97-19.29 608.99-19.29L608.99-19.29Q606.16-19.29 604.4-17.02 602.65-14.75 602.65-10.99L602.65-10.99Q602.65-8.2 603.55-6.1 604.45-4 606.06-2.83 607.68-1.66 609.73-1.66ZM678.59 0L669.31 0 669.22-1.61 672.24-2.29Q672.29-2.73 672.32-3.3 672.34-3.86 672.37-4.88 672.39-5.91 672.39-7.62L672.39-7.62 672.44-11.47Q672.44-13.09 672.34-14.82 672.24-16.55 672.1-17.33L672.1-17.33 668.97-18.02 668.97-19.48 674.93-21.14 675.61-20.41 675.37-17.92 675.52-17.87Q677.32-19.73 678.93-20.48 680.54-21.24 682.45-21.24L682.45-21.24Q684.16-21.24 685.72-20.39 687.28-19.53 688.31-17.7 689.33-15.87 689.33-12.99L689.33-12.99 689.33-7.47Q689.33-5.66 689.43-4.25 689.53-2.83 689.63-2.29L689.63-2.29 692.65-1.61 692.56 0 683.43 0 683.33-1.61 686.16-2.29Q686.21-2.69 686.23-3.22 686.26-3.76 686.28-4.66 686.31-5.57 686.31-7.03L686.31-7.03 686.31-12.65Q686.31-14.94 685.5-16.26 684.7-17.58 683.5-18.14 682.3-18.7 681.18-18.7L681.18-18.7Q679.47-18.7 678.01-17.85 676.54-16.99 675.47-15.48L675.47-15.48 675.47-8.06Q675.47-5.62 675.54-4.27 675.61-2.93 675.66-2.29L675.66-2.29 678.69-1.61 678.59 0ZM752.19 0.39L752.19 0.39Q749.51 0.39 747.26-0.83 745.02-2.05 743.7-4.39 742.38-6.74 742.38-10.01L742.38-10.01Q742.38-13.53 743.75-16.04 745.11-18.55 747.36-19.92 749.61-21.29 752.14-21.24L752.14-21.24Q755.81-21.19 757.91-18.8 760.01-16.41 760.01-11.72L760.01-11.72 760.01-10.94 744.82-10.94 744.82-12.94 757.27-12.94 756.78-12.45 756.78-13.33Q756.78-16.26 755.46-17.85 754.15-19.43 751.75-19.43L751.75-19.43Q750.34-19.43 748.99-18.58 747.65-17.72 746.8-16.02 745.94-14.31 745.94-11.72L745.94-11.72 745.94-11.23Q745.94-7.08 747.97-4.79 750-2.49 753.12-2.49L753.12-2.49Q754.93-2.49 756.27-3.17 757.61-3.86 758.88-5.42L758.88-5.42 760.05-4.39Q758.69-1.95 756.69-0.78 754.68 0.39 752.19 0.39ZM820.81-2.88L818.76 0.2 810.27-18.51 807.97-19.24 808.07-20.85 816.76-20.85 816.86-19.24 813.83-18.51 820.81-2.88ZM823.11-20.85L830.92-20.85 831.07-19.24 828.77-18.51 820.57-0.93 816.61 7.18Q815.59 9.33 814.47 10.23 813.34 11.13 811.78 11.13L811.78 11.13Q810.71 11.13 809.97 10.62 809.24 10.11 809.24 9.23L809.24 9.23Q809.24 8.64 809.75 8.06 810.27 7.47 811.39 7.08L811.39 7.08 815.54 5.81 813.59 8.3 818.86-2.05 819.4-2.83 826.04-18.51 823.01-19.24 823.11-20.85Z" opacity="1" transform="matrix(1,0,0,1,0,0)" fill="#ffffff" class="undefined-text-1" data-fill-palette-color="secondary" id="text-1"></path></svg></g></svg></g></svg></g></svg></g><g></g></svg></g></svg></g></svg></g><g mask="url(#b60bc195-de09-4baf-9167-917c86a8ef8b)"><g transform="matrix(3.1844155844155844, 0, 0, 3.1844155844155844, 58.60104867910408, 1)"><svg xmlns="http://www.w3.org/2000/svg" xmlns:xlink="http://www.w3.org/1999/xlink" version="1.1" x="0" y="0" viewBox="6.300000190734863 11.5 87.39999389648438 77" style="enable-background:new 0 0 100 100;" xml:space="preserve" height="77" width="87.39999389648438" class="icon-none" data-fill-palette-color="accent" id="none"><path d="M72.3 12.3L72.3 12.3 72.3 12.3l-0.4-0.8H28.2L6.3 50l21.8 38.5h43.7L93.7 50 72.3 12.3zM33.3 25.3L9.9 47.7l18.6-32.8L33.3 25.3zM70.7 14.8l6.4 35.7L36.9 25.8 70.7 14.8zM35.5 27.3l41 25.2-41 23.3V27.3zM77 54.5l-7.2 30.8-32.6-8.1L77 54.5zM33.5 75L9.9 50.5l23.6-22.7V75zM33.2 77.6l-4.6 7.7L11.5 55.1 33.2 77.6zM35 78.6l31.4 7.9H30.2L35 78.6zM79.3 53.3l11.6-2.5L72.1 84 79.3 53.3zM90.7 48.9l-11.4 2.5-5.9-33.1L90.7 48.9zM35 24.3l-5-10.8h38.2L35 24.3z" fill="#ffffff" data-fill-palette-color="accent"></path></svg></g></g></svg></g><defs><mask id="bcfcb30f-d138-4084-acb7-7ba3692257e5"><rect width="640" height="400" fill="white"></rect><rect width="348.05760000000004" height="62.2864753716361" fill="black" x="145.97119999999998" y="168.85676231418194" id="transform-me" transform="matrix(1,0,0,1,-122.24000000000001,-76.4)"></rect></mask><mask id="8bb340e5-9609-49ce-b0ab-812f88a614f4"><rect width="640" height="400" fill="white"></rect><rect width="348.05760000000004" height="62.2864753716361" fill="black" x="145.97119999999998" y="168.85676231418194" id="transform-me" transform="matrix(1,0,0,1,-122.24000000000001,-76.4)"></rect></mask><mask id="b60bc195-de09-4baf-9167-917c86a8ef8b"><rect width="640" height="400" fill="white"></rect><rect width="348.05760000000004" height="62.2864753716361" fill="black" x="145.97119999999998" y="168.85676231418194" id="transform-me" transform="matrix(1,0,0,1,-122.24000000000001,-76.4)"></rect></mask></defs></svg><rect width="395.52" height="247.2" fill="none" stroke="none" visibility="hidden"></rect></g></svg></g></svg>